<?xml version="1.0" standalone="no"?>
<!DOCTYPE svg PUBLIC "-//W3C//DTD SVG 20010904//EN"
 "http://www.w3.org/TR/2001/REC-SVG-20010904/DTD/svg10.dtd">
<svg version="1.0" xmlns="http://www.w3.org/2000/svg"
 width="108.000000pt" height="108.000000pt" viewBox="0 0 108.000000 108.000000"
 preserveAspectRatio="xMidYMid meet">
<metadata>
Created by potrace 1.11, written by Peter Selinger 2001-2013
</metadata>
<g transform="translate(0.000000,108.000000) scale(0.100000,-0.100000)"
fill="#000000" stroke="none">
<path d="M342 1069 c-107 -21 -225 -104 -280 -197 -34 -60 -59 -155 -58 -222
l1 -55 170 0 170 0 3 63 3 62 -106 0 c-64 0 -105 4 -105 10 0 30 48 106 92
145 47 42 121 75 170 75 19 0 19 2 22 73 2 58 -4 62 -82 46z"/>
<path d="M599 1077 c-1 -3 -1 -319 0 -334 1 -9 20 -13 61 -13 69 0 63 -13 62
133 0 86 1 87 64 58 81 -37 164 -152 166 -231 1 -16 4 -30 7 -31 3 0 30 -2 59
-3 65 -4 69 3 53 82 -38 192 -198 327 -398 337 -40 2 -73 3 -74 2z"/>
<path d="M746 478 c-13 -8 -16 -93 -4 -113 3 -6 49 -10 106 -9 l100 1 -11 -31
c-34 -101 -122 -176 -228 -194 l-44 -7 -3 -63 -3 -62 29 0 c50 0 154 37 210
75 107 73 182 216 182 349 l0 61 -161 0 c-88 0 -166 -3 -173 -7z"/>
<path d="M4 383 c12 -75 19 -99 47 -155 69 -137 207 -222 370 -227 l66 -2 -1
170 c0 94 -4 172 -8 172 -4 1 -32 2 -60 3 l-53 1 -5 -107 -5 -108 -50 24 c-93
44 -155 125 -171 224 l-7 42 -64 0 -64 0 5 -37z"/>
</g>
</svg>
