<svg xmlns="http://www.w3.org/2000/svg" width="181.841" height="181.839" viewBox="0 0 181.841 181.839">
  <g id="logo" transform="translate(-625.863 -189.761)">
    <g id="Group_10" data-name="Group 10" transform="translate(625.863 189.761)">
      <g id="Group_6" data-name="Group 6" transform="translate(0.002 110.89)">
        <path id="Path_5" data-name="Path 5" d="M707.437,386.244h-10.62A71.028,71.028,0,0,1,625.87,315.3h21.24A49.793,49.793,0,0,0,686.2,363.861V328.118h21.24Z" transform="translate(-625.87 -315.295)" fill="#3a3a3a"/>
      </g>
      <g id="Group_7" data-name="Group 7" transform="translate(0 0)">
        <path id="Path_6" data-name="Path 6" d="M683.99,271.329H625.863V260.709a71.029,71.029,0,0,1,70.949-70.948V211a49.8,49.8,0,0,0-48.566,39.086H683.99Z" transform="translate(-625.863 -189.761)" fill="#3a3a3a"/>
      </g>
      <g id="Group_8" data-name="Group 8" transform="translate(100.272 0.001)">
        <path id="Path_7" data-name="Path 7" d="M820.945,260.711h-21.24a49.791,49.791,0,0,0-39.086-48.564v35.742H739.377V189.764H750a71.028,71.028,0,0,1,70.949,70.948Z" transform="translate(-739.377 -189.764)" fill="#083d53"/>
      </g>
      <g id="Group_9" data-name="Group 9" transform="translate(110.893 100.27)">
        <path id="Path_8" data-name="Path 8" d="M751.4,384.84V363.6a49.8,49.8,0,0,0,48.566-39.086H764.221V303.272h58.127v10.62A71.028,71.028,0,0,1,751.4,384.84Z" transform="translate(-751.4 -303.272)" fill="#3a3a3a"/>
      </g>
    </g>
  </g>
</svg>
