<svg id="clue" xmlns="http://www.w3.org/2000/svg" width="57" height="71" viewBox="0 0 57 71">
  <path id="Shape" d="M12.825,0H1.174A1.131,1.131,0,0,0,0,1.083V6.77A1.285,1.285,0,0,0,1.334,8H12.666A1.285,1.285,0,0,0,14,6.77V1.083A1.132,1.132,0,0,0,12.825,0Z" transform="translate(22 56)" fill="#ecf4f7"/>
  <path id="Shape-2" data-name="Shape" d="M5.063,6H1.937A2.045,2.045,0,0,1,0,3.862V0H7V3.862A2.045,2.045,0,0,1,5.063,6Z" transform="translate(25 64)" fill="#aab1ba"/>
  <path id="Shape-3" data-name="Shape" d="M26.027,45.215a5.888,5.888,0,0,1,3.5-5.4A20.774,20.774,0,0,0,21.3,0a20.778,20.778,0,0,0-8.611,39.911,5.933,5.933,0,0,1,3.62,5.449V48h9.718V45.215Z" transform="translate(7 7)" fill="#fff"/>
  <path id="Shape-4" data-name="Shape" d="M32.364.64h0a2.162,2.162,0,0,0-3.07,0L22.206,7.77h0a5.719,5.719,0,0,0-11.411,0h0L3.746.68A2.208,2.208,0,0,0,.607.669,2.193,2.193,0,0,0,.636,3.728l7.711,7.757A3.137,3.137,0,0,1,9.258,13.7v9.7a6.025,6.025,0,0,1,2.559,4.932V31h9.7V28.177a6.03,6.03,0,0,1,2.223-4.694V13.7a3.137,3.137,0,0,1,.911-2.211l7.711-7.757A2.193,2.193,0,0,0,32.364.64Z" transform="translate(12 25)" fill="#b8d432"/>
  <path id="Shape-5" data-name="Shape" d="M27.054,71a2.7,2.7,0,0,1-2.7-2.693v-2.87H23.1a2.022,2.022,0,0,1-2.021-2.018V61.186H19.358a.71.71,0,1,1,0-1.419h1.717v-2.39a1.865,1.865,0,0,1,1.864-1.861h.124V53.547a5.31,5.31,0,0,0-3.218-4.879,21.887,21.887,0,1,1,17.528-.1,5.264,5.264,0,0,0-3.1,4.828v2.116h.1a1.865,1.865,0,0,1,1.864,1.861v2.39h1.4a.71.71,0,1,1,0,1.419h-1.4v2.234a2.022,2.022,0,0,1-2.021,2.018H32.957v2.87A2.7,2.7,0,0,1,30.26,71Zm13.235-9.814a.71.71,0,1,1,0-1.419h.617a.71.71,0,1,1,0,1.419Zm-24.195,0a.71.71,0,1,1,0-1.419h.617a.71.71,0,1,1,0,1.419ZM54.036,25.107v-.829h-.83a.71.71,0,1,1,0-1.42h.83V22.03a.711.711,0,0,1,1.423,0v.828h.83a.71.71,0,1,1,0,1.42h-.83v.829a.711.711,0,0,1-1.423,0Zm-52.5,0v-.829H.711a.71.71,0,1,1,0-1.42h.83V22.03a.711.711,0,0,1,1.423,0v.828h.83a.71.71,0,1,1,0,1.42h-.83v.829a.711.711,0,0,1-1.423,0ZM27.788,3.786V2.958h-.83a.71.71,0,1,1,0-1.42h.83V.71a.711.711,0,0,1,1.423,0v.828h.83a.71.71,0,1,1,0,1.42h-.83v.828a.711.711,0,0,1-1.423,0Z" fill="#1c1d21"/>
</svg>
