<svg id="review" xmlns="http://www.w3.org/2000/svg" width="56" height="53" viewBox="0 0 56 53">
  <path id="Shape" d="M5.64,10.527,3.131,11.905a.781.781,0,0,1-1.123-.852l.479-2.918a.831.831,0,0,0-.223-.715L.235,5.352A.818.818,0,0,1,.663,3.974l2.805-.426a.777.777,0,0,0,.583-.442L5.306.451a.76.76,0,0,1,1.388,0L7.949,3.106a.777.777,0,0,0,.583.442l2.805.426a.818.818,0,0,1,.429,1.379L9.736,7.419a.831.831,0,0,0-.222.715l.479,2.918a.781.781,0,0,1-1.123.852L6.36,10.527A.745.745,0,0,0,5.64,10.527Z" transform="translate(11 0)" fill="#b8d432"/>
  <path id="Shape-2" data-name="Shape" d="M5.64,10.527,3.131,11.905a.781.781,0,0,1-1.123-.852l.479-2.918a.831.831,0,0,0-.223-.715L.235,5.352A.818.818,0,0,1,.663,3.974l2.805-.426a.777.777,0,0,0,.583-.442L5.306.451a.76.76,0,0,1,1.388,0L7.949,3.106a.777.777,0,0,0,.583.442l2.805.426a.818.818,0,0,1,.429,1.379L9.736,7.419a.831.831,0,0,0-.222.715l.479,2.918a.781.781,0,0,1-1.123.852L6.36,10.527A.745.745,0,0,0,5.64,10.527Z" transform="translate(11 17)" fill="#b8d432"/>
  <rect id="Rectangle-path" width="9" height="16" transform="translate(9 37)" fill="#aab1ba"/>
  <path id="Shape-3" data-name="Shape" d="M37,18.732h0a2.644,2.644,0,0,0-2.676-2.61H22.854a3.6,3.6,0,0,1-3.64-3.549V5.089A5.155,5.155,0,0,0,14,0H12.241V12.552A9.162,9.162,0,0,1,2.966,21.6H0V37H34.324a2.61,2.61,0,1,0,0-5.219,2.61,2.61,0,1,0,0-5.219A2.644,2.644,0,0,0,37,23.952h0a2.644,2.644,0,0,0-2.676-2.61A2.644,2.644,0,0,0,37,18.732Z" transform="translate(19 15)" fill="#fff"/>
  <path id="Shape-4" data-name="Shape" d="M52.639,53H4.163a.7.7,0,1,1,0-1.4h10V37.594H8.988a.7.7,0,1,1,0-1.394H21.564a8.427,8.427,0,0,0,8.483-8.349V15.3a.7.7,0,0,1,.708-.7h1.739a5.841,5.841,0,0,1,5.881,5.787v7.485a2.879,2.879,0,0,0,2.9,2.853h5.034l.031,0,.121,0h6.181A3.338,3.338,0,0,1,56,34.032a3.284,3.284,0,0,1-1.3,2.611,3.27,3.27,0,0,1,0,5.22,3.27,3.27,0,0,1,0,5.22,3.278,3.278,0,0,1-.684,5.627.711.711,0,0,1-.574.291ZM.708,53a.7.7,0,1,1,0-1.4h.659a.7.7,0,1,1,0,1.4ZM12.224,29.283a1.45,1.45,0,0,1-.594-1.436l.485-2.783A.071.071,0,0,0,12.093,25L10.04,23.028a1.441,1.441,0,0,1-.377-1.5,1.475,1.475,0,0,1,1.2-1l2.839-.406a.075.075,0,0,0,.056-.041l1.27-2.532a1.5,1.5,0,0,1,2.675,0l1.27,2.532a.075.075,0,0,0,.056.041l2.84.406a1.479,1.479,0,0,1,1.2,1,1.444,1.444,0,0,1-.378,1.5L20.642,25a.073.073,0,0,0-.021.065l.484,2.783a1.446,1.446,0,0,1-.593,1.435,1.5,1.5,0,0,1-1.57.112L16.4,28.081a.075.075,0,0,0-.07,0l-2.539,1.314a1.5,1.5,0,0,1-1.57-.112Zm31.991-8.126v-.814h-.826a.7.7,0,1,1,0-1.394h.826v-.814a.708.708,0,0,1,1.417,0v.814h.827a.7.7,0,1,1,0,1.394h-.827v.814a.708.708,0,0,1-1.417,0Zm0-8.155v-.814h-.826a.7.7,0,1,1,0-1.4h.826V9.98a.708.708,0,0,1,1.417,0v.814h.827a.7.7,0,1,1,0,1.4h-.827V13a.708.708,0,0,1-1.417,0Zm-25.272-.336L16.4,11.353a.073.073,0,0,0-.069,0l-2.539,1.314a1.5,1.5,0,0,1-1.57-.113,1.448,1.448,0,0,1-.594-1.436l.485-2.783a.071.071,0,0,0-.022-.065L10.04,6.3a1.441,1.441,0,0,1-.377-1.5,1.475,1.475,0,0,1,1.2-1l2.839-.406a.075.075,0,0,0,.056-.04L15.031.818a1.5,1.5,0,0,1,2.675,0l1.27,2.532a.075.075,0,0,0,.056.04l2.84.406a1.478,1.478,0,0,1,1.2,1A1.444,1.444,0,0,1,22.7,6.3L20.642,8.271a.073.073,0,0,0-.021.065l.484,2.783a1.446,1.446,0,0,1-.593,1.436,1.5,1.5,0,0,1-.875.283A1.515,1.515,0,0,1,18.942,12.667Z" fill="#1c1d21"/>
</svg>
