<svg id="search_1_" data-name="search (1)" xmlns="http://www.w3.org/2000/svg" width="49" height="66" viewBox="0 0 49 66">
  <path id="Shape" d="M22.5,0a22.676,22.676,0,0,0-2.451,45.2V62.531a2.451,2.451,0,1,0,4.9,0V45.2A22.676,22.676,0,0,0,22.5,0Z" transform="translate(2 1)" fill="#aab1ba"/>
  <circle id="Oval" cx="18" cy="18" r="18" transform="translate(7 5)" fill="#b8d432"/>
  <path id="Shape-2" data-name="Shape" d="M16.741,0H3.259A3.212,3.212,0,0,0,0,3.163V8.947A17.748,17.748,0,0,0,10,12,17.748,17.748,0,0,0,20,8.947V3.163A3.212,3.212,0,0,0,16.741,0Z" transform="translate(15 29)" fill="#ecf4f7"/>
  <path id="Shape-3" data-name="Shape" d="M.462,0,0,11.914Q.987,12,2,12t2-.086L3.538,0Z" transform="translate(23 29)" fill="#b8d432"/>
  <circle id="Oval-2" data-name="Oval" cx="8.5" cy="8.5" r="8.5" transform="translate(17 12)" fill="#fff"/>
  <path id="Shape-4" data-name="Shape" d="M21.4,62.883V48.007a.656.656,0,1,1,1.312,0V62.883a1.787,1.787,0,1,0,3.574,0V48.007a.656.656,0,1,1,1.312,0V62.883a3.1,3.1,0,1,1-6.2,0ZM2.734,30.931v6.241a.656.656,0,1,1-1.312,0V23.339s0-.009,0-.014c0-.037,0-.073,0-.11A23.06,23.06,0,0,1,46.266,15.5V9.258a.656.656,0,1,1,1.312,0V23.092s0,.009,0,.014c0,.036,0,.073,0,.11A23.06,23.06,0,0,1,2.734,30.931ZM1.421,45.77V45H.656a.66.66,0,0,1,0-1.32h.765v-.77a.657.657,0,1,1,1.313,0v.77H3.5A.66.66,0,0,1,3.5,45H2.734v.77a.657.657,0,1,1-1.313,0Zm0-5.248V39.9a.657.657,0,1,1,1.313,0v.623a.657.657,0,1,1-1.313,0ZM46.266,6.53V5.908a.656.656,0,1,1,1.312,0V6.53a.656.656,0,1,1-1.312,0Zm0-3.011V2.75H45.5a.66.66,0,0,1,0-1.32h.765V.66a.656.656,0,1,1,1.312,0v.77h.765a.66.66,0,0,1,0,1.32h-.765v.77a.656.656,0,1,1-1.312,0Z" fill="#1c1d21"/>
</svg>
