<svg xmlns="http://www.w3.org/2000/svg" width="58" height="76" viewBox="0 0 58 76">
  <g id="watch" transform="translate(0 76)">
    <path id="Shape" d="M3.1-8H.9a.917.917,0,0,0-.9.929V-.929A.917.917,0,0,0,.9,0H3.1A.917.917,0,0,0,4-.929V-7.071A.917.917,0,0,0,3.1-8Z" transform="translate(53 -34)" fill="#aab1ba"/>
    <circle id="Oval" cx="25" cy="25" r="25" transform="translate(1 -64)" fill="#aab1ba"/>
    <circle id="Oval-2" data-name="Oval" cx="21" cy="21" r="21" transform="translate(5 -58)" fill="#fff"/>
    <path id="Shape-2" data-name="Shape" d="M18.669-9H1.331A1.325,1.325,0,0,0,0-7.68V0H20V-7.68A1.325,1.325,0,0,0,18.669-9Z" transform="translate(16 -1)" fill="#b8d432"/>
    <path id="Shape-3" data-name="Shape" d="M1.33,0H18.669A1.325,1.325,0,0,0,20-1.32V-9H0v7.68A1.325,1.325,0,0,0,1.33,0Z" transform="translate(16 -66)" fill="#b8d432"/>
    <ellipse id="Oval-3" data-name="Oval" cx="3" cy="2.5" rx="3" ry="2.5" transform="translate(23 -40)" fill="#b8d432"/>
    <path id="Shape-4" data-name="Shape" d="M34.993-75.24v7.433a.735.735,0,0,0-.016.155.735.735,0,0,0,.016.155v.1a.59.59,0,0,1-.589.59H16.843a.59.59,0,0,1-.589-.59v-.1a.728.728,0,0,0,.016-.155.735.735,0,0,0-.016-.155V-75.24A.759.759,0,0,0,15.5-76a.76.76,0,0,0-.76.76v6.828h-.7a2.363,2.363,0,0,0-2.36,2.362V-59.5A25.647,25.647,0,0,0,0-38,25.393,25.393,0,0,0,2.695-26.541a.759.759,0,0,0,1.019.339.76.76,0,0,0,.339-1.02A23.891,23.891,0,0,1,1.519-38a24.141,24.141,0,0,1,24.1-24.123A24.141,24.141,0,0,1,49.729-38a24.141,24.141,0,0,1-24.1,24.123A24.148,24.148,0,0,1,7.752-21.813a.761.761,0,0,0-1.073-.053.76.76,0,0,0-.053,1.074A25.608,25.608,0,0,0,11.67-16.5V-9.95a2.364,2.364,0,0,0,2.361,2.363h.7V-.76a.759.759,0,0,0,.759.76.76.76,0,0,0,.76-.76V-8.193a.737.737,0,0,0,.016-.156.735.735,0,0,0-.016-.155v-.1a.589.589,0,0,1,.589-.589H34.4a.589.589,0,0,1,.589.589v.1a.735.735,0,0,0-.016.155.737.737,0,0,0,.016.156V-.76a.76.76,0,0,0,.76.76.759.759,0,0,0,.759-.76V-7.588h.7A2.365,2.365,0,0,0,39.577-9.95V-16.5A25.65,25.65,0,0,0,51.235-37.24H52.6V-35.1a1.64,1.64,0,0,0,1.637,1.638h2.13A1.639,1.639,0,0,0,58-35.1v-5.8a1.639,1.639,0,0,0-1.636-1.639h-2.13A1.639,1.639,0,0,0,52.6-40.9v2.14H51.235A25.653,25.653,0,0,0,39.577-59.5V-66.05a2.364,2.364,0,0,0-2.361-2.362h-.7V-75.24a.76.76,0,0,0-.76-.76A.76.76,0,0,0,34.993-75.24Zm-2.788,0v.508a.76.76,0,0,0,.76.76.759.759,0,0,0,.759-.76v-.508a.759.759,0,0,0-.759-.76A.76.76,0,0,0,32.2-75.24Zm-14.681,0v.508a.76.76,0,0,0,.76.76.759.759,0,0,0,.759-.76v-.508a.759.759,0,0,0-.759-.76A.76.76,0,0,0,17.524-75.24ZM32.2-72.376v.508a.76.76,0,0,0,.76.76.76.76,0,0,0,.759-.76v-.508a.759.759,0,0,0-.759-.76A.76.76,0,0,0,32.2-72.376Zm-14.681,0v.508a.76.76,0,0,0,.76.76.76.76,0,0,0,.759-.76v-.508a.759.759,0,0,0-.759-.76A.76.76,0,0,0,17.524-72.376ZM32.2-69.512V-69a.76.76,0,0,0,.76.76.759.759,0,0,0,.759-.76v-.508a.759.759,0,0,0-.759-.76A.76.76,0,0,0,32.2-69.512Zm-14.681,0V-69a.76.76,0,0,0,.76.76.759.759,0,0,0,.759-.76v-.508a.759.759,0,0,0-.759-.76A.76.76,0,0,0,17.524-69.512Zm28.242,4.983v.886H44.88a.76.76,0,0,0-.76.76.76.76,0,0,0,.76.761h.886v.887a.76.76,0,0,0,.76.76.76.76,0,0,0,.76-.76v-.887h.886a.76.76,0,0,0,.76-.761.76.76,0,0,0-.76-.76h-.886v-.886a.76.76,0,0,0-.76-.761A.76.76,0,0,0,45.766-64.529ZM3.787-38A21.87,21.87,0,0,0,25.624-16.147,21.87,21.87,0,0,0,47.46-38,21.869,21.869,0,0,0,25.624-59.853,21.869,21.869,0,0,0,3.787-38Zm.522,12.842a.76.76,0,0,0-.227,1.05c.2.3.4.607.609.9a.76.76,0,0,0,1.058.181.76.76,0,0,0,.182-1.059c-.2-.277-.389-.562-.573-.848a.758.758,0,0,0-.638-.348A.751.751,0,0,0,4.309-25.158ZM3.962-14.765v.887H3.076a.76.76,0,0,0-.76.76.761.761,0,0,0,.76.76h.886v.887a.76.76,0,0,0,.76.76.76.76,0,0,0,.76-.76v-.887h.886a.761.761,0,0,0,.76-.76.76.76,0,0,0-.76-.76H5.481v-.887a.76.76,0,0,0-.76-.76A.76.76,0,0,0,3.962-14.765ZM32.2-7v.508a.76.76,0,0,0,.76.76.759.759,0,0,0,.759-.76V-7a.759.759,0,0,0-.759-.76A.759.759,0,0,0,32.2-7ZM17.524-7v.508a.76.76,0,0,0,.76.76.759.759,0,0,0,.759-.76V-7a.759.759,0,0,0-.759-.76A.76.76,0,0,0,17.524-7ZM32.2-4.132v.508a.76.76,0,0,0,.76.76.759.759,0,0,0,.759-.76v-.508a.759.759,0,0,0-.759-.76A.759.759,0,0,0,32.2-4.132Zm-14.681,0v.508a.76.76,0,0,0,.76.76.759.759,0,0,0,.759-.76v-.508a.759.759,0,0,0-.759-.76A.76.76,0,0,0,17.524-4.132ZM32.2-1.267V-.76a.76.76,0,0,0,.76.76.759.759,0,0,0,.759-.76v-.508a.759.759,0,0,0-.759-.76A.759.759,0,0,0,32.2-1.267Zm-14.681,0V-.76a.76.76,0,0,0,.76.76.759.759,0,0,0,.759-.76v-.508a.759.759,0,0,0-.759-.76A.76.76,0,0,0,17.524-1.267Z" fill="#1c1d21"/>
  </g>
</svg>
