<svg xmlns="http://www.w3.org/2000/svg" xmlns:xlink="http://www.w3.org/1999/xlink" width="148" height="148" viewBox="0 0 148 148">
  <defs>
    <clipPath id="clip-path">
      <path id="Clip_2" data-name="Clip 2" d="M0,0H36.831V32.832H0Z" transform="translate(0 0.168)" fill="none"/>
    </clipPath>
    <clipPath id="clip-path-2">
      <path id="Clip_5" data-name="Clip 5" d="M0,0H32.831V36.83H0Z" transform="translate(0 0.094)" fill="none"/>
    </clipPath>
    <clipPath id="clip-path-3">
      <path id="Clip_10" data-name="Clip 10" d="M0,0H32.832V36.831H0Z" transform="translate(0.073 0.169)" fill="none"/>
    </clipPath>
  </defs>
  <g id="Group_1" data-name="Group 1" transform="translate(-233 -15038)">
    <text id="Promotion_Efficiency" data-name="Promotion Efficiency" transform="translate(233 15182)" fill="#fff" font-size="14" font-family="Montserrat-Regular, Montserrat"><tspan x="0" y="0">Promotion Efficiency</tspan></text>
    <g id="Group_3" data-name="Group 3" transform="translate(263 15088)">
      <path id="Clip_2-2" data-name="Clip 2" d="M0,0H36.831V32.832H0Z" transform="translate(0 0.168)" fill="none"/>
      <g id="Group_3-2" data-name="Group 3" clip-path="url(#clip-path)">
        <path id="Fill_1" data-name="Fill 1" d="M36.831,32.832h-4.8C14.371,32.832,0,18.1,0,0H9.591A22.919,22.919,0,0,0,27.24,22.474V5.934h9.591Z" transform="translate(0 0.168)" fill="#fff"/>
      </g>
    </g>
    <g id="Group_6" data-name="Group 6" transform="translate(263 15038)">
      <path id="Clip_5-2" data-name="Clip 5" d="M0,0H32.831V36.83H0Z" transform="translate(0 0.094)" fill="none"/>
      <g id="Group_6-2" data-name="Group 6" clip-path="url(#clip-path-2)">
        <path id="Fill_4" data-name="Fill 4" d="M26.9,36.83H0v-4.8C0,14.371,14.728,0,32.831,0V9.591A22.92,22.92,0,0,0,10.358,27.24H26.9Z" transform="translate(0 0.094)" fill="#fff"/>
      </g>
    </g>
    <path id="Fill_7" data-name="Fill 7" d="M37,33H27.365A23.035,23.035,0,0,0,9.635,10.411V27.036H0V0H4.817C22.563,0,37,14.8,37,33" transform="translate(309 15038)" fill="#b8d432"/>
    <g id="Group_11" data-name="Group 11" transform="translate(313 15084)">
      <path id="Clip_10-2" data-name="Clip 10" d="M0,0H32.832V36.831H0Z" transform="translate(0.073 0.169)" fill="none"/>
      <g id="Group_11-2" data-name="Group 11" clip-path="url(#clip-path-3)">
        <path id="Fill_9" data-name="Fill 9" d="M0,36.831V27.24A22.92,22.92,0,0,0,22.474,9.591H5.933V0h26.9V4.8C32.832,22.46,18.1,36.831,0,36.831" transform="translate(0.073 0.169)" fill="#fff"/>
      </g>
    </g>
    <g id="Page_1" data-name="Page 1" transform="translate(235 15140)">
      <path id="Fill_1-2" data-name="Fill 1" d="M7.113,20a6.465,6.465,0,0,1-5.055-2.477A10.054,10.054,0,0,1,0,11.146v-7.1H1.76v6.744c0,4.535,2.1,7.465,5.353,7.465,3.287,0,5.329-2.861,5.329-7.465V4.041H14.2V9.833C16,6.3,19.05,4.016,21.968,4.016a5.153,5.153,0,0,1,4.524,2.191C27.493,7.657,28,9.856,28,12.741c0,.8-.04,1.751-.125,2.986h-14.6C11.824,18.562,9.751,20,7.113,20ZM21.842,5.663A6.789,6.789,0,0,0,17.519,7.69a13.755,13.755,0,0,0-3.419,5,9.366,9.366,0,0,1-.226,1.261H26.14c.05-.566.076-1.112.076-1.621C26.216,8.218,24.54,5.663,21.842,5.663Zm.553-3.475H20.61V0h1.785V2.187Z" transform="translate(0 2)" fill="#fff"/>
      <path id="Fill_3" data-name="Fill 3" d="M10,11.754H5.413C4.906,14.421,3.093,15.819,0,16V14.265c2.48,0,3.733-1.32,3.733-4.376V0H5.6V9.942H10Z" transform="translate(30 6)" fill="#fff"/>
      <path id="Fill_4-2" data-name="Fill 4" d="M19,12H13.916a4.672,4.672,0,0,1-3.905-2,8.935,8.935,0,0,1-5.9,2H0V10.205H4.063a7.315,7.315,0,0,0,2.411-.333A10.509,10.509,0,0,0,8.806,8.59,11.694,11.694,0,0,0,3.2,4.077L3.171,2.051A12.206,12.206,0,0,1,9.723,0a10.879,10.879,0,0,1,6.892,2.461,24.052,24.052,0,0,1-1.677,2.821,16.867,16.867,0,0,1-3.46,3.487,3.667,3.667,0,0,0,1.86,1.307,10.984,10.984,0,0,0,2.123.129H19V12ZM9.828,1.616A10.574,10.574,0,0,0,4.822,3.077,10.357,10.357,0,0,1,7.836,4.8,14.884,14.884,0,0,1,10.22,7.436a13.134,13.134,0,0,0,4.271-4.41C13.4,2.5,12.7,2.186,12.5,2.1A7.6,7.6,0,0,0,9.828,1.616Z" transform="translate(39 6)" fill="#fff"/>
      <path id="Fill_5" data-name="Fill 5" d="M6,0V12.375C6,15.45,4.743,17,2.231,17H0V15.187H1.641a2.173,2.173,0,0,0,2.18-1.1,5.788,5.788,0,0,0,.385-2.522V0Z" transform="translate(57 1)" fill="#fff"/>
      <path id="Fill_6" data-name="Fill 6" d="M0,17H2V0H0Z" transform="translate(67 1)" fill="#fff"/>
      <path id="Fill_7-2" data-name="Fill 7" d="M5.513,16a5.079,5.079,0,0,1-4.07-1.729A6.293,6.293,0,0,1,0,9.95,6.151,6.151,0,0,1,1.494,5.656,5.06,5.06,0,0,1,5.539,3.9,5.085,5.085,0,0,1,9.609,5.629,6.469,6.469,0,0,1,11,9.924a6.445,6.445,0,0,1-1.443,4.295A5.07,5.07,0,0,1,5.513,16ZM5.641,5.447A3.118,3.118,0,0,0,2.859,6.861a5.972,5.972,0,0,0-.773,3.221,5.3,5.3,0,0,0,.773,3.011,2.981,2.981,0,0,0,2.653,1.362A2.989,2.989,0,0,0,8.086,13.28a5.981,5.981,0,0,0,.853-3.512,5.758,5.758,0,0,0-.695-3.011A2.938,2.938,0,0,0,5.641,5.447Zm2.6-3.221H6.414V0h1.83V2.225Zm-3.375,0H3.039V0h1.83V2.225Z" transform="translate(75 2)" fill="#fff"/>
      <path id="Fill_8" data-name="Fill 8" d="M9,2.706l-1.854.2A1.631,1.631,0,0,0,5.4,1.39c-1.263,0-1.908.794-1.908,2.358a2.447,2.447,0,0,0,.43,1.514h5.05V7H0V5.262H1.881a3.578,3.578,0,0,1-.322-1.514,3.816,3.816,0,0,1,.887-2.631A3.7,3.7,0,0,1,5.346,0,3.319,3.319,0,0,1,9,2.706" transform="translate(89 10)" fill="#fff"/>
      <path id="Fill_9-2" data-name="Fill 9" d="M5,17H3.146a2.764,2.764,0,0,1-2.137-1A4.5,4.5,0,0,1,0,12.822V0H1.69V11.719a5.437,5.437,0,0,0,.47,2.6,1.763,1.763,0,0,0,1.338.814,12.935,12.935,0,0,0,1.5.027Z" transform="translate(101 1)" fill="#fff"/>
      <path id="Fill_10" data-name="Fill 10" d="M17,18H14.48a17.793,17.793,0,0,1-2.926-.157,9.515,9.515,0,0,1-3.028-1.25,9.7,9.7,0,0,1-3.055,1.25A18.028,18.028,0,0,1,2.519,18H0V16.177H4.021a5.5,5.5,0,0,0,2.6-.625,6.157,6.157,0,0,1-2.7-2.423A6.287,6.287,0,0,1,3,9.847,5.244,5.244,0,0,1,8.5,4.428,5.315,5.315,0,0,1,12.623,6.1,5.417,5.417,0,0,1,14,9.847a6.28,6.28,0,0,1-.916,3.281,6.158,6.158,0,0,1-2.7,2.423,5.494,5.494,0,0,0,2.6.625H17V18ZM8.5,6.017A3.387,3.387,0,0,0,4.963,9.56a4.79,4.79,0,0,0,.865,2.735,5.971,5.971,0,0,0,2.7,2.162,5.913,5.913,0,0,0,2.646-2.136,4.805,4.805,0,0,0,.891-2.735,3.521,3.521,0,0,0-.916-2.5A3.4,3.4,0,0,0,8.5,6.017Zm.942-3.8H7.635V0H9.442V2.213Z" transform="translate(105)" fill="#fff"/>
      <path id="Fill_11" data-name="Fill 11" d="M18,14.342V17H0V15.158H15.792c.026-.316.052-.631.052-.947a7.624,7.624,0,0,0-1.429-4.869A5.956,5.956,0,0,0,9.429,7.211H4.078C5.013,5.5,6.338,3.105,8.052,0h2.156L7.117,5.395H9.429a8.219,8.219,0,0,1,6.286,2.474A9.065,9.065,0,0,1,18,14.342" transform="translate(121 1)" fill="#fff"/>
    </g>
  </g>
</svg>
