<?xml version="1.0" encoding="utf-8"?>
<!-- Generator: Adobe Illustrator 24.3.0, SVG Export Plug-In . SVG Version: 6.00 Build 0)  -->
<svg version="1.1" id="Layer_1" xmlns="http://www.w3.org/2000/svg" xmlns:xlink="http://www.w3.org/1999/xlink" x="0px" y="0px"
	 viewBox="0 0 895 895" style="enable-background:new 0 0 895 895;" xml:space="preserve">
<style type="text/css">
	.st0{fill:#FFFFFF;}
	.st1{fill:#083d53;}
</style>
<g id="pe_logo_primary" transform="translate(-625.867 -189.764)">
	<g id="Group_10" transform="translate(625.867 189.764)">
		<g id="Group_6" transform="translate(0.004 545.791)">
			<path id="Path_5" class="st0" d="M401.5,349.2h-52.3C156.6,349.2,0,192.6,0,0h104.5c0,117,82.5,215,192.4,239V63.1h104.5V349.2z"
				/>
		</g>
		<g id="Group_7">
			<path id="Path_6" class="st0" d="M286.1,401.5H0v-52.3C0,156.7,156.7,0,349.2,0v104.5c-117,0-215,82.5-239,192.4h175.9V401.5z"/>
		</g>
		<g id="Group_8" transform="translate(493.529)">
			<path id="Path_7" class="st1" d="M401.5,349.2H296.9c0-117-82.5-215-192.4-239v175.9H0V0h52.3C244.8,0,401.5,156.6,401.5,349.2
				L401.5,349.2z"/>
		</g>
		<g id="Group_9" transform="translate(545.804 493.52)">
			<path id="Path_8" class="st0" d="M0,401.5V296.9c117,0,215-82.5,239-192.4H63.1V0h286.1v52.3C349.2,244.8,192.6,401.5,0,401.5
				L0,401.5z"/>
		</g>
	</g>
</g>
</svg>
