<svg id="Group_9_Copy_2" data-name="Group 9 Copy 2" xmlns="http://www.w3.org/2000/svg" width="79" height="79" viewBox="0 0 79 79">
  <rect id="Rectangle_3_Copy_2" data-name="Rectangle 3 Copy 2" width="69" height="69" rx="34.5" transform="translate(5 5)" fill="#ffbaf3"/>
  <rect id="Rectangle_3_Copy_3" data-name="Rectangle 3 Copy 3" width="79" height="79" rx="39.5" fill="#d43273" opacity="0.448"/>
  <g id="megaphone" transform="translate(20 25)">
    <path id="Shape" d="M5.138,19.406H0V7.143H9.786c6.215,0,13.792-1.248,16.8-4.722V0H29V26.549H26.586V24.128c-2.576-2.974-8.5-4.316-14.047-4.641l1.973,10.077L7.409,31Z" fill="#fff"/>
    <path id="Shape-2" data-name="Shape" d="M1.619,0,0,1.76A14.313,14.313,0,0,1,3.711,11.5,14.313,14.313,0,0,1,0,21.24L1.619,23A16.9,16.9,0,0,0,6,11.5,16.9,16.9,0,0,0,1.619,0Z" transform="translate(36 2)" fill="#fff"/>
    <path id="Shape-3" data-name="Shape" d="M1.739,0,0,1.765A8.92,8.92,0,0,1,0,14.235L1.739,16A11.444,11.444,0,0,0,1.739,0Z" transform="translate(32 6)" fill="#fff"/>
    <path id="Shape-4" data-name="Shape" d="M0,0H3V3H0Z" transform="translate(8 12)" fill="#fff"/>
  </g>
</svg>
