<svg id="Group_9" data-name="Group 9" xmlns="http://www.w3.org/2000/svg" width="79" height="79" viewBox="0 0 79 79">
  <rect id="Rectangle_3_Copy_2" data-name="Rectangle 3 Copy 2" width="69" height="69" rx="34.5" transform="translate(5 5)" fill="#32d4cd"/>
  <rect id="Rectangle_3_Copy_3" data-name="Rectangle 3 Copy 3" width="79" height="79" rx="39.5" fill="#32d4cd" opacity="0.448"/>
  <g id="team_copy" data-name="team copy" transform="translate(19 22)">
    <path id="Shape" d="M32.784,35H8.849a2.112,2.112,0,0,1-1.661-.829,2.158,2.158,0,0,1-.377-1.846L8.4,26.787A6.476,6.476,0,0,1,8.66,26h-4a1.542,1.542,0,0,1-1.284-.641,1.531,1.531,0,0,1-.3-1.431l.981-3.542c.038-.151.113-.3.151-.453H1.3A1.271,1.271,0,0,1,.241,19.4,1.242,1.242,0,0,1,.052,18.31l.6-2.184c.717-2.3,2.265-2.977,4-3.429a6.469,6.469,0,0,1-.868-3.24A3.743,3.743,0,0,1,7.6,5.689,3.628,3.628,0,0,1,9.377,6.1a.791.791,0,0,1,.227.151,5.776,5.776,0,0,1,4.87-2.713,6.036,6.036,0,0,1,2,.339A8.521,8.521,0,0,1,32.143,8.515c0,6.329-4,11.867-8.532,11.867-4.606,0-8.5-5.425-8.5-11.867a8.6,8.6,0,0,1,.642-3.278,4.787,4.787,0,0,0-1.283-.189,4.282,4.282,0,0,0-4.266,4.258c0,2.637,1.246,5.2,2.983,6.1a.754.754,0,0,1,.339,1.017.8.8,0,0,1-.679.415.559.559,0,0,1-.339-.076,4.277,4.277,0,0,1-.868-.565.731.731,0,0,1-.34.189c-3.246.828-4.908,1.657-5.776,4.407l-.981,3.5c0,.076.038.113.038.151.038.038.038.038.076.038H9.415a9.363,9.363,0,0,1,5.512-4.031l.454-.113a1.9,1.9,0,0,1,1.925.6c1.661,1.884,3.775,2.034,6,2.034s4.342-.15,6-2.034a1.9,1.9,0,0,1,1.925-.6l.453.076a9.243,9.243,0,0,1,6.457,6.065.837.837,0,0,1,.188.3l1.586,5.5a2.1,2.1,0,0,1-.377,1.884A2.059,2.059,0,0,1,37.881,35Z" fill="#fff"/>
  </g>
</svg>
