<svg id="Group_9_Copy" data-name="Group 9 Copy" xmlns="http://www.w3.org/2000/svg" width="79" height="79" viewBox="0 0 79 79">
  <rect id="Rectangle_3_Copy_2" data-name="Rectangle 3 Copy 2" width="69" height="69" rx="34.5" transform="translate(5 5)" fill="#a3bbec"/>
  <rect id="Rectangle_3_Copy_3" data-name="Rectangle 3 Copy 3" width="79" height="79" rx="39.5" fill="#3268d4" opacity="0.448"/>
  <g id="team_copy" data-name="team copy" transform="translate(25 16)">
    <g id="man">
      <path id="Shape" d="M2.48,5A2.331,2.331,0,0,1,0,2.862V1.269A1.293,1.293,0,0,1,1.312,0H3.688A1.293,1.293,0,0,1,5,1.269V2.862A2.331,2.331,0,0,1,2.521,5Z" transform="translate(18 35)" fill="#fff6f6"/>
      <path id="Shape-2" data-name="Shape" d="M2.592,43A2.363,2.363,0,0,1,.039,40.06c0-.012,0-.023.005-.034l1.835-9.217a4.261,4.261,0,0,1,3.238-3.326c.03-.009-.271.067,6.494-1.6V24.863a8.406,8.406,0,0,1-1.82-1.323,8.638,8.638,0,0,1-2.632-6.16C5.085,17,4.082,14.9,5.254,13.35v-4.5a7.316,7.316,0,0,1,.392-2.121.63.63,0,0,1,1.194.4C6.4,8.443,6.521,8.955,6.514,12.4a3.279,3.279,0,0,1,.645-.188V11.37a2.213,2.213,0,0,1,1.22-1.985,15.581,15.581,0,0,1,14.269.11h0c1.535.791,1.156,2.447,1.209,2.718a3.289,3.289,0,0,1,.623.179V8.848a5.643,5.643,0,0,0-4.328-5.369,9.834,9.834,0,0,1-4.344-2.094.457.457,0,0,0-.622,0,9.829,9.829,0,0,1-4.343,2.094A5.652,5.652,0,0,0,8.231,4.87a.63.63,0,1,1-.875-.906,6.892,6.892,0,0,1,3.183-1.707,8.6,8.6,0,0,0,3.8-1.8,1.713,1.713,0,0,1,2.322,0,8.6,8.6,0,0,0,3.8,1.8,6.6,6.6,0,0,1,4.63,3.792,7.531,7.531,0,0,1,.655,2.8v4.471c1.2,1.541.224,3.672-1.883,4.062V17.5a8.339,8.339,0,0,1-4.474,7.4v.972c4.517,1.133,6.565,1.6,7.008,1.763a4.181,4.181,0,0,1,2.723,3.173l.545,2.735a.63.63,0,1,1-1.236.246l-.545-2.734a3.05,3.05,0,0,0-2.345-2.36l-6.278-1.556a3.892,3.892,0,0,1-7.516.007L5.46,28.695a3.044,3.044,0,0,0-2.345,2.36l-1.832,9.2c-.14,1.038.287,1.487,1.309,1.487H5.773V35.8a.63.63,0,0,1,1.26,0V41.74H23.984V35.8a.63.63,0,0,1,1.26,0V41.74c.815-.024,1.48-.014,2.024,0,1.261.022,1.88.046,2.224-.349a1.535,1.535,0,0,0,.219-1.133l-.7-3.539a.63.63,0,1,1,1.235-.246l.708,3.557a2.7,2.7,0,0,1-.508,2.187A2.568,2.568,0,0,1,28.4,43Z" fill="#fff6f6"/>
    </g>
  </g>
</svg>
